<?xml version="1.0" encoding="UTF-8"?>
<svg xmlns="http://www.w3.org/2000/svg" xmlns:xlink="http://www.w3.org/1999/xlink" width="26px" height="26px" viewBox="0 0 26 26" version="1.1">
<defs>
<clipPath id="clip1">
  <path d="M 4.339844 19 L 8 19 L 8 20.332031 L 4.339844 20.332031 Z M 4.339844 19 "/>
</clipPath>
<clipPath id="clip2">
  <path d="M 18 19 L 21.632812 19 L 21.632812 20.332031 L 18 20.332031 Z M 18 19 "/>
</clipPath>
<clipPath id="clip3">
  <path d="M 4.339844 16.441406 L 21.632812 16.441406 L 21.632812 18.96875 L 4.339844 18.96875 Z M 4.339844 16.441406 "/>
</clipPath>
<clipPath id="clip4">
  <path d="M 7.992188 19.5625 L 17.980469 19.5625 L 17.980469 20.332031 L 7.992188 20.332031 Z M 7.992188 19.5625 "/>
</clipPath>
<clipPath id="clip5">
  <path d="M 8.199219 5.679688 L 17.773438 5.679688 L 17.773438 15.246094 L 8.199219 15.246094 Z M 8.199219 5.679688 "/>
</clipPath>
<clipPath id="clip6">
  <path d="M 10.398438 7.613281 L 15.574219 7.613281 L 15.574219 10 L 10.398438 10 Z M 10.398438 7.613281 "/>
</clipPath>
<clipPath id="clip7">
  <path d="M 10.398438 11 L 15.574219 11 L 15.574219 13.304688 L 10.398438 13.304688 Z M 10.398438 11 "/>
</clipPath>
</defs>
<g id="surface1">
<rect x="0" y="0" width="26" height="26" style="fill:rgb(98.823529%,89.411765%,30.196078%);fill-opacity:1;stroke:none;"/>
<g clip-path="url(#clip1)" clip-rule="nonzero">
<path style=" stroke:none;fill-rule:nonzero;fill:rgb(0%,0%,0%);fill-opacity:1;" d="M 4.339844 19.835938 L 7.640625 19.835938 L 7.640625 20.0625 L 4.339844 20.0625 Z M 4.339844 19.835938 "/>
</g>
<g clip-path="url(#clip2)" clip-rule="nonzero">
<path style=" stroke:none;fill-rule:nonzero;fill:rgb(0%,0%,0%);fill-opacity:1;" d="M 18.328125 19.835938 L 21.632812 19.835938 L 21.632812 20.0625 L 18.328125 20.0625 Z M 18.328125 19.835938 "/>
</g>
<g clip-path="url(#clip3)" clip-rule="nonzero">
<path style=" stroke:none;fill-rule:nonzero;fill:rgb(21.568627%,25.490196%,31.764706%);fill-opacity:1;" d="M 6.125 16.441406 L 6.710938 18.964844 L 6.273438 18.964844 C 6.226562 18.964844 6.1875 18.953125 6.15625 18.933594 C 6.128906 18.910156 6.113281 18.878906 6.105469 18.84375 L 6.027344 18.386719 L 5.167969 18.386719 L 4.980469 18.84375 C 4.96875 18.875 4.945312 18.902344 4.90625 18.929688 C 4.871094 18.953125 4.828125 18.964844 4.785156 18.964844 L 4.339844 18.964844 L 5.546875 16.441406 Z M 5.625 17.285156 L 5.328125 18.003906 L 5.960938 18.003906 L 5.839844 17.28125 C 5.828125 17.222656 5.816406 17.160156 5.804688 17.101562 C 5.792969 17.039062 5.78125 16.980469 5.773438 16.929688 C 5.765625 16.957031 5.753906 16.988281 5.738281 17.023438 C 5.722656 17.058594 5.707031 17.09375 5.695312 17.128906 C 5.679688 17.160156 5.664062 17.191406 5.652344 17.222656 C 5.640625 17.25 5.628906 17.273438 5.625 17.285156 Z M 7.730469 16.441406 L 7.472656 18.515625 L 8.324219 18.515625 L 8.269531 18.964844 L 6.855469 18.964844 L 7.167969 16.441406 Z M 8.316406 18.125 L 8.367188 17.703125 L 9.238281 17.703125 L 9.183594 18.125 Z M 10.363281 18.964844 L 9.421875 18.964844 L 9.734375 16.441406 L 10.601562 16.441406 C 10.746094 16.441406 10.875 16.453125 10.976562 16.480469 C 11.082031 16.507812 11.167969 16.550781 11.234375 16.601562 C 11.300781 16.652344 11.347656 16.714844 11.378906 16.785156 C 11.410156 16.859375 11.425781 16.9375 11.425781 17.027344 C 11.425781 17.09375 11.417969 17.160156 11.398438 17.226562 C 11.382812 17.289062 11.351562 17.351562 11.3125 17.402344 C 11.273438 17.457031 11.226562 17.507812 11.164062 17.550781 C 11.101562 17.597656 11.027344 17.632812 10.941406 17.664062 C 11.078125 17.699219 11.179688 17.757812 11.246094 17.835938 C 11.308594 17.914062 11.34375 18.011719 11.34375 18.132812 C 11.34375 18.25 11.320312 18.359375 11.277344 18.457031 C 11.230469 18.558594 11.167969 18.648438 11.082031 18.722656 C 11 18.796875 10.894531 18.855469 10.773438 18.902344 C 10.652344 18.945312 10.515625 18.964844 10.363281 18.964844 Z M 10.484375 17.886719 L 10.117188 17.886719 L 10.039062 18.539062 L 10.410156 18.539062 C 10.480469 18.539062 10.539062 18.53125 10.585938 18.511719 C 10.632812 18.492188 10.671875 18.460938 10.699219 18.425781 C 10.730469 18.390625 10.75 18.347656 10.765625 18.296875 C 10.777344 18.25 10.785156 18.195312 10.785156 18.136719 C 10.785156 18.101562 10.78125 18.066406 10.769531 18.035156 C 10.761719 18.003906 10.742188 17.976562 10.71875 17.957031 C 10.695312 17.933594 10.664062 17.917969 10.625 17.90625 C 10.585938 17.894531 10.539062 17.886719 10.484375 17.886719 Z M 10.242188 16.863281 L 10.164062 17.511719 L 10.433594 17.511719 C 10.496094 17.511719 10.554688 17.507812 10.605469 17.492188 C 10.65625 17.480469 10.699219 17.460938 10.738281 17.429688 C 10.773438 17.398438 10.800781 17.359375 10.820312 17.304688 C 10.839844 17.253906 10.851562 17.191406 10.851562 17.117188 C 10.851562 17.023438 10.824219 16.957031 10.777344 16.917969 C 10.726562 16.882812 10.652344 16.863281 10.546875 16.863281 Z M 13.332031 16.441406 L 13.277344 16.875 L 12.34375 16.875 L 12.265625 17.484375 L 12.980469 17.484375 L 12.925781 17.90625 L 12.214844 17.90625 L 12.136719 18.53125 L 13.078125 18.53125 L 13.023438 18.964844 L 11.515625 18.964844 L 11.828125 16.441406 Z M 15.601562 17.539062 C 15.601562 17.679688 15.585938 17.808594 15.554688 17.933594 C 15.523438 18.054688 15.480469 18.167969 15.421875 18.273438 C 15.363281 18.378906 15.292969 18.476562 15.210938 18.5625 C 15.128906 18.644531 15.035156 18.71875 14.933594 18.777344 C 14.832031 18.839844 14.722656 18.886719 14.601562 18.917969 C 14.480469 18.949219 14.351562 18.964844 14.21875 18.964844 L 13.3125 18.964844 L 13.625 16.441406 L 14.53125 16.441406 C 14.695312 16.441406 14.84375 16.46875 14.976562 16.523438 C 15.109375 16.582031 15.222656 16.65625 15.316406 16.753906 C 15.40625 16.855469 15.476562 16.96875 15.527344 17.105469 C 15.578125 17.238281 15.601562 17.382812 15.601562 17.539062 Z M 15.023438 17.554688 C 15.023438 17.453125 15.011719 17.359375 14.988281 17.273438 C 14.964844 17.191406 14.929688 17.121094 14.882812 17.058594 C 14.835938 17 14.777344 16.957031 14.710938 16.925781 C 14.640625 16.890625 14.5625 16.875 14.476562 16.875 L 14.136719 16.875 L 13.933594 18.53125 L 14.273438 18.53125 C 14.390625 18.53125 14.496094 18.507812 14.585938 18.460938 C 14.679688 18.417969 14.757812 18.351562 14.824219 18.265625 C 14.886719 18.183594 14.9375 18.082031 14.972656 17.960938 C 15.007812 17.839844 15.023438 17.703125 15.023438 17.554688 Z M 17.160156 16.441406 L 17.746094 18.964844 L 17.308594 18.964844 C 17.257812 18.964844 17.21875 18.953125 17.191406 18.933594 C 17.160156 18.910156 17.144531 18.878906 17.136719 18.84375 L 17.058594 18.386719 L 16.203125 18.386719 L 16.015625 18.84375 C 16.003906 18.875 15.976562 18.902344 15.941406 18.929688 C 15.902344 18.953125 15.863281 18.964844 15.816406 18.964844 L 15.375 18.964844 L 16.582031 16.441406 Z M 16.65625 17.285156 L 16.359375 18.003906 L 16.992188 18.003906 L 16.871094 17.28125 C 16.859375 17.222656 16.847656 17.160156 16.835938 17.101562 C 16.824219 17.039062 16.816406 16.980469 16.808594 16.929688 C 16.796875 16.957031 16.785156 16.988281 16.769531 17.023438 C 16.753906 17.058594 16.742188 17.09375 16.726562 17.128906 C 16.710938 17.160156 16.699219 17.191406 16.683594 17.222656 C 16.671875 17.25 16.660156 17.273438 16.65625 17.285156 Z M 19.917969 16.441406 L 18.882812 18 L 18.761719 18.964844 L 18.199219 18.964844 L 18.316406 18.003906 L 17.667969 16.441406 L 18.171875 16.441406 C 18.21875 16.441406 18.257812 16.453125 18.285156 16.472656 C 18.3125 16.496094 18.332031 16.527344 18.34375 16.5625 L 18.585938 17.328125 C 18.601562 17.378906 18.617188 17.425781 18.632812 17.476562 C 18.644531 17.523438 18.65625 17.566406 18.664062 17.613281 C 18.6875 17.566406 18.710938 17.523438 18.738281 17.476562 C 18.765625 17.429688 18.792969 17.378906 18.824219 17.328125 L 19.253906 16.5625 C 19.269531 16.53125 19.296875 16.503906 19.328125 16.476562 C 19.363281 16.453125 19.402344 16.441406 19.449219 16.441406 Z M 21.042969 16.441406 L 21.628906 18.964844 L 21.195312 18.964844 C 21.144531 18.964844 21.105469 18.953125 21.078125 18.933594 C 21.046875 18.910156 21.03125 18.878906 21.023438 18.84375 L 20.945312 18.386719 L 20.085938 18.386719 L 19.898438 18.84375 C 19.886719 18.875 19.863281 18.902344 19.828125 18.929688 C 19.789062 18.953125 19.75 18.964844 19.703125 18.964844 L 19.257812 18.964844 L 20.464844 16.441406 Z M 20.542969 17.285156 L 20.246094 18.003906 L 20.878906 18.003906 L 20.757812 17.28125 C 20.746094 17.222656 20.734375 17.160156 20.722656 17.101562 C 20.710938 17.039062 20.699219 16.980469 20.691406 16.929688 C 20.683594 16.957031 20.671875 16.988281 20.65625 17.023438 C 20.640625 17.058594 20.625 17.09375 20.613281 17.128906 C 20.597656 17.160156 20.582031 17.191406 20.570312 17.222656 C 20.558594 17.25 20.546875 17.273438 20.542969 17.285156 Z M 20.542969 17.285156 "/>
</g>
<g clip-path="url(#clip4)" clip-rule="nonzero">
<path style=" stroke:none;fill-rule:nonzero;fill:rgb(21.568627%,25.490196%,31.764706%);fill-opacity:1;" d="M 8.589844 20.179688 L 8.589844 20.257812 C 8.570312 20.269531 8.550781 20.28125 8.53125 20.292969 C 8.507812 20.300781 8.484375 20.308594 8.460938 20.316406 C 8.4375 20.324219 8.414062 20.328125 8.390625 20.332031 C 8.363281 20.335938 8.339844 20.339844 8.320312 20.339844 C 8.269531 20.339844 8.226562 20.332031 8.1875 20.316406 C 8.144531 20.300781 8.113281 20.277344 8.082031 20.246094 C 8.054688 20.21875 8.03125 20.183594 8.015625 20.140625 C 8 20.101562 7.992188 20.054688 7.992188 20.003906 C 7.992188 19.957031 8 19.914062 8.011719 19.875 C 8.023438 19.832031 8.042969 19.796875 8.0625 19.765625 C 8.085938 19.730469 8.113281 19.703125 8.144531 19.675781 C 8.175781 19.652344 8.207031 19.632812 8.242188 19.613281 C 8.277344 19.597656 8.316406 19.585938 8.355469 19.574219 C 8.394531 19.566406 8.433594 19.5625 8.472656 19.5625 C 8.484375 19.5625 8.5 19.5625 8.515625 19.5625 C 8.53125 19.5625 8.546875 19.566406 8.5625 19.566406 C 8.582031 19.570312 8.597656 19.574219 8.617188 19.574219 C 8.632812 19.578125 8.652344 19.582031 8.667969 19.589844 L 8.628906 19.710938 L 8.617188 19.714844 C 8.585938 19.699219 8.558594 19.6875 8.53125 19.683594 C 8.503906 19.675781 8.476562 19.675781 8.457031 19.675781 C 8.417969 19.675781 8.378906 19.683594 8.347656 19.695312 C 8.3125 19.710938 8.285156 19.730469 8.261719 19.757812 C 8.238281 19.785156 8.21875 19.816406 8.203125 19.855469 C 8.191406 19.890625 8.183594 19.929688 8.183594 19.972656 C 8.183594 20.007812 8.1875 20.042969 8.199219 20.074219 C 8.210938 20.105469 8.226562 20.128906 8.246094 20.152344 C 8.265625 20.171875 8.289062 20.1875 8.320312 20.199219 C 8.347656 20.210938 8.382812 20.21875 8.421875 20.21875 C 8.453125 20.21875 8.480469 20.214844 8.507812 20.207031 C 8.535156 20.199219 8.5625 20.191406 8.589844 20.179688 Z M 9.089844 20.226562 C 9.113281 20.226562 9.136719 20.222656 9.15625 20.214844 C 9.179688 20.207031 9.195312 20.195312 9.214844 20.179688 C 9.230469 20.167969 9.246094 20.148438 9.261719 20.128906 C 9.273438 20.109375 9.285156 20.089844 9.296875 20.066406 C 9.304688 20.042969 9.3125 20.019531 9.316406 19.992188 C 9.320312 19.96875 9.324219 19.941406 9.324219 19.914062 C 9.324219 19.882812 9.320312 19.851562 9.3125 19.820312 C 9.304688 19.792969 9.292969 19.765625 9.277344 19.746094 C 9.261719 19.722656 9.242188 19.707031 9.21875 19.691406 C 9.195312 19.679688 9.171875 19.675781 9.140625 19.675781 C 9.105469 19.675781 9.074219 19.683594 9.046875 19.699219 C 9.015625 19.71875 8.992188 19.742188 8.972656 19.769531 C 8.953125 19.800781 8.9375 19.832031 8.925781 19.871094 C 8.914062 19.90625 8.910156 19.945312 8.910156 19.984375 C 8.910156 20.019531 8.914062 20.050781 8.921875 20.078125 C 8.929688 20.109375 8.941406 20.132812 8.957031 20.15625 C 8.972656 20.175781 8.992188 20.195312 9.015625 20.207031 C 9.035156 20.21875 9.0625 20.226562 9.089844 20.226562 Z M 9.0625 20.339844 C 9.011719 20.339844 8.964844 20.332031 8.921875 20.316406 C 8.878906 20.300781 8.84375 20.277344 8.8125 20.25 C 8.785156 20.222656 8.761719 20.1875 8.742188 20.144531 C 8.726562 20.101562 8.71875 20.054688 8.71875 20 C 8.71875 19.957031 8.722656 19.917969 8.734375 19.878906 C 8.746094 19.839844 8.761719 19.804688 8.78125 19.773438 C 8.800781 19.742188 8.824219 19.710938 8.851562 19.683594 C 8.878906 19.660156 8.910156 19.636719 8.941406 19.617188 C 8.976562 19.601562 9.011719 19.585938 9.050781 19.578125 C 9.089844 19.566406 9.128906 19.5625 9.171875 19.5625 C 9.222656 19.5625 9.265625 19.570312 9.308594 19.585938 C 9.351562 19.597656 9.386719 19.621094 9.417969 19.648438 C 9.449219 19.679688 9.472656 19.714844 9.488281 19.753906 C 9.507812 19.796875 9.515625 19.84375 9.515625 19.898438 C 9.515625 19.941406 9.507812 19.980469 9.5 20.019531 C 9.488281 20.058594 9.472656 20.09375 9.453125 20.128906 C 9.433594 20.160156 9.410156 20.1875 9.382812 20.214844 C 9.355469 20.242188 9.324219 20.261719 9.289062 20.28125 C 9.257812 20.300781 9.222656 20.3125 9.183594 20.324219 C 9.144531 20.332031 9.105469 20.339844 9.0625 20.339844 Z M 9.699219 19.570312 L 9.882812 19.570312 L 9.828125 20.054688 C 9.824219 20.082031 9.824219 20.105469 9.828125 20.128906 C 9.835938 20.148438 9.84375 20.167969 9.855469 20.183594 C 9.867188 20.195312 9.882812 20.207031 9.898438 20.214844 C 9.914062 20.222656 9.933594 20.226562 9.953125 20.226562 C 9.976562 20.226562 9.996094 20.222656 10.011719 20.214844 C 10.03125 20.207031 10.046875 20.195312 10.0625 20.183594 C 10.078125 20.167969 10.089844 20.152344 10.101562 20.128906 C 10.109375 20.109375 10.117188 20.082031 10.117188 20.054688 L 10.175781 19.570312 L 10.320312 19.570312 L 10.265625 20.035156 C 10.261719 20.078125 10.25 20.117188 10.234375 20.15625 C 10.214844 20.191406 10.191406 20.222656 10.160156 20.25 C 10.132812 20.277344 10.097656 20.300781 10.054688 20.316406 C 10.015625 20.332031 9.96875 20.339844 9.914062 20.339844 C 9.867188 20.339844 9.828125 20.332031 9.792969 20.320312 C 9.753906 20.304688 9.726562 20.285156 9.703125 20.261719 C 9.679688 20.238281 9.660156 20.207031 9.652344 20.171875 C 9.640625 20.132812 9.640625 20.09375 9.644531 20.046875 Z M 10.726562 20.046875 L 10.628906 20.046875 L 10.597656 20.328125 L 10.414062 20.328125 L 10.5 19.570312 L 10.773438 19.570312 C 10.820312 19.570312 10.859375 19.578125 10.894531 19.585938 C 10.925781 19.597656 10.953125 19.613281 10.976562 19.628906 C 11 19.644531 11.015625 19.664062 11.027344 19.6875 C 11.039062 19.710938 11.042969 19.734375 11.042969 19.757812 C 11.042969 19.785156 11.039062 19.808594 11.027344 19.832031 C 11.015625 19.851562 11.003906 19.871094 10.984375 19.890625 C 10.96875 19.910156 10.949219 19.925781 10.929688 19.941406 C 10.910156 19.957031 10.890625 19.96875 10.871094 19.980469 L 11.042969 20.328125 L 10.832031 20.328125 Z M 10.671875 19.683594 L 10.640625 19.945312 L 10.773438 19.945312 C 10.78125 19.9375 10.792969 19.929688 10.804688 19.921875 C 10.816406 19.910156 10.824219 19.898438 10.832031 19.886719 C 10.839844 19.875 10.847656 19.859375 10.855469 19.847656 C 10.859375 19.832031 10.859375 19.8125 10.859375 19.796875 C 10.859375 19.78125 10.859375 19.765625 10.855469 19.75 C 10.847656 19.738281 10.84375 19.726562 10.832031 19.714844 C 10.824219 19.707031 10.808594 19.699219 10.796875 19.691406 C 10.78125 19.6875 10.765625 19.683594 10.746094 19.683594 Z M 11.761719 20.179688 L 11.761719 20.257812 C 11.742188 20.269531 11.722656 20.28125 11.703125 20.292969 C 11.679688 20.300781 11.65625 20.308594 11.632812 20.316406 C 11.609375 20.324219 11.585938 20.328125 11.5625 20.332031 C 11.539062 20.335938 11.515625 20.339844 11.492188 20.339844 C 11.441406 20.339844 11.398438 20.332031 11.359375 20.316406 C 11.320312 20.300781 11.285156 20.277344 11.253906 20.246094 C 11.226562 20.21875 11.203125 20.183594 11.1875 20.140625 C 11.171875 20.101562 11.164062 20.054688 11.164062 20.003906 C 11.164062 19.957031 11.171875 19.914062 11.183594 19.875 C 11.195312 19.832031 11.214844 19.796875 11.238281 19.765625 C 11.257812 19.730469 11.285156 19.703125 11.316406 19.675781 C 11.347656 19.652344 11.378906 19.632812 11.414062 19.613281 C 11.453125 19.597656 11.488281 19.585938 11.527344 19.574219 C 11.566406 19.566406 11.605469 19.5625 11.644531 19.5625 C 11.65625 19.5625 11.671875 19.5625 11.6875 19.5625 C 11.703125 19.5625 11.71875 19.566406 11.734375 19.566406 C 11.753906 19.570312 11.769531 19.574219 11.789062 19.574219 C 11.804688 19.578125 11.824219 19.582031 11.839844 19.589844 L 11.800781 19.710938 L 11.789062 19.714844 C 11.757812 19.699219 11.730469 19.6875 11.703125 19.683594 C 11.675781 19.675781 11.648438 19.675781 11.628906 19.675781 C 11.589844 19.675781 11.550781 19.683594 11.519531 19.695312 C 11.484375 19.710938 11.457031 19.730469 11.433594 19.757812 C 11.410156 19.785156 11.390625 19.816406 11.375 19.855469 C 11.363281 19.890625 11.355469 19.929688 11.355469 19.972656 C 11.355469 20.007812 11.359375 20.042969 11.371094 20.074219 C 11.382812 20.105469 11.398438 20.128906 11.417969 20.152344 C 11.4375 20.171875 11.460938 20.1875 11.492188 20.199219 C 11.519531 20.210938 11.554688 20.21875 11.59375 20.21875 C 11.625 20.21875 11.652344 20.214844 11.679688 20.207031 C 11.707031 20.199219 11.734375 20.191406 11.761719 20.179688 Z M 12.382812 20.328125 L 11.902344 20.328125 L 11.988281 19.570312 L 12.484375 19.570312 L 12.449219 19.683594 L 12.160156 19.683594 L 12.136719 19.886719 L 12.390625 19.886719 L 12.359375 19.988281 L 12.125 19.988281 L 12.097656 20.214844 L 12.414062 20.214844 Z M 12.765625 20.226562 C 12.78125 20.226562 12.796875 20.222656 12.8125 20.21875 C 12.832031 20.214844 12.84375 20.210938 12.855469 20.203125 C 12.871094 20.195312 12.878906 20.183594 12.886719 20.171875 C 12.894531 20.160156 12.898438 20.148438 12.898438 20.132812 C 12.898438 20.113281 12.894531 20.101562 12.886719 20.089844 C 12.878906 20.074219 12.867188 20.0625 12.851562 20.054688 C 12.835938 20.042969 12.820312 20.035156 12.804688 20.023438 C 12.785156 20.015625 12.765625 20.003906 12.746094 19.996094 C 12.730469 19.984375 12.710938 19.972656 12.691406 19.960938 C 12.675781 19.949219 12.65625 19.9375 12.644531 19.921875 C 12.628906 19.90625 12.617188 19.886719 12.609375 19.867188 C 12.601562 19.847656 12.597656 19.824219 12.597656 19.796875 C 12.597656 19.761719 12.605469 19.730469 12.621094 19.703125 C 12.632812 19.671875 12.65625 19.648438 12.683594 19.628906 C 12.710938 19.605469 12.742188 19.589844 12.78125 19.578125 C 12.820312 19.566406 12.859375 19.5625 12.90625 19.5625 C 12.917969 19.5625 12.933594 19.5625 12.949219 19.5625 C 12.964844 19.5625 12.980469 19.566406 12.996094 19.566406 C 13.015625 19.570312 13.035156 19.574219 13.050781 19.574219 C 13.070312 19.578125 13.089844 19.582031 13.105469 19.589844 L 13.066406 19.710938 L 13.058594 19.714844 C 13.042969 19.707031 13.027344 19.699219 13.011719 19.695312 C 12.996094 19.691406 12.980469 19.6875 12.964844 19.683594 C 12.949219 19.679688 12.9375 19.675781 12.925781 19.675781 C 12.910156 19.675781 12.898438 19.675781 12.890625 19.675781 C 12.871094 19.675781 12.855469 19.675781 12.839844 19.679688 C 12.828125 19.683594 12.8125 19.691406 12.804688 19.695312 C 12.792969 19.703125 12.785156 19.714844 12.78125 19.722656 C 12.773438 19.734375 12.769531 19.746094 12.769531 19.757812 C 12.769531 19.777344 12.773438 19.789062 12.785156 19.804688 C 12.792969 19.816406 12.804688 19.828125 12.820312 19.835938 C 12.832031 19.847656 12.847656 19.859375 12.867188 19.867188 C 12.886719 19.875 12.902344 19.886719 12.921875 19.894531 C 12.941406 19.90625 12.960938 19.917969 12.976562 19.929688 C 12.996094 19.941406 13.011719 19.957031 13.027344 19.972656 C 13.039062 19.984375 13.050781 20.003906 13.0625 20.023438 C 13.070312 20.042969 13.074219 20.066406 13.074219 20.09375 C 13.074219 20.128906 13.066406 20.160156 13.050781 20.191406 C 13.035156 20.21875 13.015625 20.246094 12.984375 20.269531 C 12.957031 20.289062 12.921875 20.308594 12.882812 20.320312 C 12.84375 20.332031 12.800781 20.339844 12.753906 20.339844 C 12.734375 20.339844 12.714844 20.335938 12.695312 20.335938 C 12.675781 20.332031 12.65625 20.332031 12.636719 20.328125 C 12.617188 20.324219 12.597656 20.316406 12.578125 20.3125 C 12.554688 20.304688 12.535156 20.296875 12.515625 20.289062 L 12.558594 20.167969 L 12.570312 20.164062 C 12.585938 20.171875 12.605469 20.179688 12.621094 20.1875 C 12.636719 20.195312 12.65625 20.203125 12.671875 20.207031 C 12.6875 20.214844 12.703125 20.21875 12.71875 20.222656 C 12.734375 20.222656 12.75 20.226562 12.765625 20.226562 Z M 13.210938 19.964844 L 13.566406 19.964844 L 13.550781 20.082031 L 13.199219 20.082031 Z M 14.292969 20.179688 L 14.292969 20.257812 C 14.277344 20.269531 14.257812 20.28125 14.234375 20.292969 C 14.210938 20.300781 14.191406 20.308594 14.167969 20.316406 C 14.140625 20.324219 14.117188 20.328125 14.09375 20.332031 C 14.070312 20.335938 14.046875 20.339844 14.023438 20.339844 C 13.976562 20.339844 13.929688 20.332031 13.890625 20.316406 C 13.851562 20.300781 13.816406 20.277344 13.789062 20.246094 C 13.757812 20.21875 13.738281 20.183594 13.722656 20.140625 C 13.703125 20.101562 13.695312 20.054688 13.695312 20.003906 C 13.695312 19.957031 13.703125 19.914062 13.714844 19.875 C 13.730469 19.832031 13.746094 19.796875 13.769531 19.765625 C 13.792969 19.730469 13.816406 19.703125 13.847656 19.675781 C 13.878906 19.652344 13.914062 19.632812 13.949219 19.613281 C 13.984375 19.597656 14.019531 19.585938 14.058594 19.574219 C 14.101562 19.566406 14.140625 19.5625 14.179688 19.5625 C 14.191406 19.5625 14.203125 19.5625 14.21875 19.5625 C 14.234375 19.5625 14.25 19.566406 14.269531 19.566406 C 14.285156 19.570312 14.304688 19.574219 14.320312 19.574219 C 14.339844 19.578125 14.355469 19.582031 14.375 19.589844 L 14.332031 19.710938 L 14.320312 19.714844 C 14.292969 19.699219 14.261719 19.6875 14.234375 19.683594 C 14.207031 19.675781 14.183594 19.675781 14.160156 19.675781 C 14.121094 19.675781 14.085938 19.683594 14.050781 19.695312 C 14.019531 19.710938 13.988281 19.730469 13.964844 19.757812 C 13.941406 19.785156 13.921875 19.816406 13.910156 19.855469 C 13.894531 19.890625 13.886719 19.929688 13.886719 19.972656 C 13.886719 20.007812 13.894531 20.042969 13.902344 20.074219 C 13.914062 20.105469 13.929688 20.128906 13.949219 20.152344 C 13.96875 20.171875 13.996094 20.1875 14.023438 20.199219 C 14.054688 20.210938 14.089844 20.21875 14.125 20.21875 C 14.15625 20.21875 14.1875 20.214844 14.214844 20.207031 C 14.242188 20.199219 14.269531 20.191406 14.292969 20.179688 Z M 14.914062 20.328125 L 14.4375 20.328125 L 14.523438 19.570312 L 15.015625 19.570312 L 14.984375 19.683594 L 14.691406 19.683594 L 14.667969 19.886719 L 14.921875 19.886719 L 14.894531 19.988281 L 14.65625 19.988281 L 14.632812 20.214844 L 14.949219 20.214844 Z M 15.234375 20.328125 L 15.089844 20.328125 L 15.175781 19.570312 L 15.425781 19.570312 L 15.628906 19.984375 L 15.671875 20.097656 L 15.683594 20.097656 L 15.6875 20.019531 C 15.6875 20.003906 15.691406 19.988281 15.691406 19.976562 C 15.691406 19.960938 15.695312 19.945312 15.695312 19.929688 L 15.738281 19.570312 L 15.882812 19.570312 L 15.792969 20.328125 L 15.605469 20.328125 L 15.351562 19.816406 L 15.308594 19.710938 L 15.300781 19.710938 L 15.292969 19.828125 C 15.28125 19.914062 15.273438 19.996094 15.261719 20.078125 C 15.253906 20.160156 15.246094 20.242188 15.234375 20.328125 Z M 16.40625 19.683594 L 16.332031 20.328125 L 16.152344 20.328125 L 16.226562 19.683594 L 15.992188 19.683594 L 16.023438 19.570312 L 16.65625 19.570312 L 16.625 19.683594 Z M 17.171875 20.328125 L 16.695312 20.328125 L 16.78125 19.570312 L 17.273438 19.570312 L 17.242188 19.683594 L 16.949219 19.683594 L 16.925781 19.886719 L 17.179688 19.886719 L 17.152344 19.988281 L 16.914062 19.988281 L 16.890625 20.214844 L 17.207031 20.214844 Z M 17.660156 20.046875 L 17.5625 20.046875 L 17.53125 20.328125 L 17.351562 20.328125 L 17.4375 19.570312 L 17.707031 19.570312 C 17.753906 19.570312 17.792969 19.578125 17.828125 19.585938 C 17.863281 19.597656 17.890625 19.613281 17.914062 19.628906 C 17.933594 19.644531 17.953125 19.664062 17.960938 19.6875 C 17.972656 19.710938 17.976562 19.734375 17.976562 19.757812 C 17.976562 19.785156 17.972656 19.808594 17.960938 19.832031 C 17.953125 19.851562 17.9375 19.871094 17.921875 19.890625 C 17.902344 19.910156 17.886719 19.925781 17.867188 19.941406 C 17.84375 19.957031 17.824219 19.96875 17.804688 19.980469 L 17.980469 20.328125 L 17.765625 20.328125 Z M 17.605469 19.683594 L 17.574219 19.945312 L 17.707031 19.945312 C 17.71875 19.9375 17.726562 19.929688 17.738281 19.921875 C 17.75 19.910156 17.757812 19.898438 17.769531 19.886719 C 17.777344 19.875 17.785156 19.859375 17.789062 19.847656 C 17.792969 19.832031 17.796875 19.8125 17.796875 19.796875 C 17.796875 19.78125 17.792969 19.765625 17.789062 19.75 C 17.785156 19.738281 17.777344 19.726562 17.765625 19.714844 C 17.757812 19.707031 17.746094 19.699219 17.730469 19.691406 C 17.714844 19.6875 17.699219 19.683594 17.679688 19.683594 Z M 17.605469 19.683594 "/>
</g>
<g clip-path="url(#clip5)" clip-rule="nonzero">
<path style="fill-rule:nonzero;fill:rgb(0%,0%,0%);fill-opacity:1;stroke-width:1;stroke-linecap:butt;stroke-linejoin:miter;stroke:rgb(100%,100%,100%);stroke-opacity:1;stroke-miterlimit:4;" d="M 0.0131391 109.490492 C 0.0131391 49.00556 49.062219 -0.0435198 109.457808 -0.0435198 C 169.942739 -0.0435198 218.991819 49.00556 218.991819 109.490492 C 218.991819 169.975423 169.942739 218.93516 109.457808 218.93516 C 49.062219 218.93516 0.0131391 169.975423 0.0131391 109.490492 Z M 109.457808 213.75329 C 167.083776 213.75329 213.720607 167.11646 213.720607 109.490492 C 213.720607 51.864523 167.083776 5.227693 109.457808 5.227693 C 51.921182 5.227693 5.195009 51.864523 5.195009 109.490492 C 5.195009 167.11646 51.921182 213.75329 109.457808 213.75329 Z M 109.457808 213.75329 " transform="matrix(0.0437222,0,0,0.0437222,8.198644,5.673778)"/>
</g>
<path style=" stroke:none;fill-rule:nonzero;fill:rgb(0%,0%,0%);fill-opacity:1;" d="M 14.070312 10.460938 C 14.070312 11.054688 13.589844 11.535156 12.996094 11.535156 C 12.402344 11.535156 11.921875 11.054688 11.921875 10.460938 C 11.921875 9.867188 12.402344 9.386719 12.996094 9.386719 C 13.589844 9.386719 14.070312 9.867188 14.070312 10.460938 Z M 14.070312 10.460938 "/>
<g clip-path="url(#clip6)" clip-rule="nonzero">
<path style=" stroke:none;fill-rule:nonzero;fill:rgb(0%,0%,0%);fill-opacity:1;" d="M 10.632812 9.40625 L 11.636719 9.171875 L 11.246094 8.929688 C 11.28125 8.890625 11.316406 8.851562 11.351562 8.816406 C 12.257812 7.910156 13.734375 7.910156 14.640625 8.816406 C 14.832031 9.007812 14.988281 9.226562 15.101562 9.472656 L 15.574219 9.25 C 15.433594 8.953125 15.242188 8.683594 15.007812 8.445312 C 13.898438 7.335938 12.09375 7.335938 10.984375 8.445312 C 10.917969 8.511719 10.855469 8.582031 10.800781 8.652344 L 10.398438 8.402344 Z M 10.632812 9.40625 "/>
</g>
<g clip-path="url(#clip7)" clip-rule="nonzero">
<path style=" stroke:none;fill-rule:nonzero;fill:rgb(0%,0%,0%);fill-opacity:1;" d="M 15.320312 11.59375 L 14.308594 11.792969 L 14.691406 12.050781 C 14.671875 12.066406 14.65625 12.085938 14.640625 12.105469 C 14.199219 12.542969 13.617188 12.785156 12.996094 12.785156 C 12.375 12.785156 11.789062 12.542969 11.351562 12.105469 C 11.160156 11.914062 11.007812 11.695312 10.894531 11.453125 L 10.421875 11.675781 C 10.5625 11.972656 10.75 12.238281 10.984375 12.472656 C 11.519531 13.011719 12.234375 13.304688 12.996094 13.304688 C 13.757812 13.304688 14.472656 13.011719 15.007812 12.472656 C 15.050781 12.429688 15.089844 12.386719 15.128906 12.34375 L 15.519531 12.605469 Z M 15.320312 11.59375 "/>
</g>
<path style=" stroke:none;fill-rule:nonzero;fill:rgb(0%,0%,0%);fill-opacity:1;" d="M 13.007812 8.792969 L 12.792969 9.226562 L 13.21875 9.226562 Z M 13.007812 8.792969 "/>
<path style=" stroke:none;fill-rule:nonzero;fill:rgb(0%,0%,0%);fill-opacity:1;" d="M 14.230469 10.257812 L 14.230469 10.683594 L 14.664062 10.472656 Z M 14.230469 10.257812 "/>
<path style=" stroke:none;fill-rule:nonzero;fill:rgb(0%,0%,0%);fill-opacity:1;" d="M 12.984375 12.128906 L 13.195312 11.695312 L 12.773438 11.695312 Z M 12.984375 12.128906 "/>
<path style=" stroke:none;fill-rule:nonzero;fill:rgb(0%,0%,0%);fill-opacity:1;" d="M 11.761719 10.660156 L 11.761719 10.238281 L 11.328125 10.449219 Z M 11.761719 10.660156 "/>
<path style=" stroke:none;fill-rule:nonzero;fill:rgb(0%,0%,0%);fill-opacity:1;" d="M 13.824219 9.011719 L 13.425781 9.285156 L 13.796875 9.492188 Z M 13.824219 9.011719 "/>
<path style=" stroke:none;fill-rule:nonzero;fill:rgb(0%,0%,0%);fill-opacity:1;" d="M 14.171875 10.890625 L 13.960938 11.261719 L 14.441406 11.289062 Z M 14.171875 10.890625 "/>
<path style=" stroke:none;fill-rule:nonzero;fill:rgb(0%,0%,0%);fill-opacity:1;" d="M 12.167969 11.90625 L 12.5625 11.632812 L 12.195312 11.425781 Z M 12.167969 11.90625 "/>
<path style=" stroke:none;fill-rule:nonzero;fill:rgb(0%,0%,0%);fill-opacity:1;" d="M 12.03125 9.660156 L 11.546875 9.632812 L 11.820312 10.027344 Z M 12.03125 9.660156 "/>
<path style=" stroke:none;fill-rule:nonzero;fill:rgb(0%,0%,0%);fill-opacity:1;" d="M 14.433594 9.613281 L 13.953125 9.65625 L 14.171875 10.019531 Z M 14.433594 9.613281 "/>
<path style=" stroke:none;fill-rule:nonzero;fill:rgb(0%,0%,0%);fill-opacity:1;" d="M 13.839844 11.898438 L 13.800781 11.417969 L 13.4375 11.636719 Z M 13.839844 11.898438 "/>
<path style=" stroke:none;fill-rule:nonzero;fill:rgb(0%,0%,0%);fill-opacity:1;" d="M 11.820312 10.902344 L 11.558594 11.304688 L 12.039062 11.265625 Z M 11.820312 10.902344 "/>
<path style=" stroke:none;fill-rule:nonzero;fill:rgb(0%,0%,0%);fill-opacity:1;" d="M 12.152344 9.023438 L 12.191406 9.503906 L 12.554688 9.285156 Z M 12.152344 9.023438 "/>
</g>
</svg>
