<svg xmlns="http://www.w3.org/2000/svg" version="1.1" xmlns:xlink="http://www.w3.org/1999/xlink" xmlns:svgjs="http://svgjs.dev/svgjs" width="1500" height="1500" viewBox="0 0 1500 1500"><rect width="1500" height="1500" fill="#ffffff"></rect><g transform="matrix(0.6666666666666666,0,0,0.6666666666666666,250,250)"><svg viewBox="0 0 280 280" data-background-color="#0069dc" preserveAspectRatio="xMidYMid meet" height="1500" width="1500" xmlns="http://www.w3.org/2000/svg" xmlns:xlink="http://www.w3.org/1999/xlink"><g id="tight-bounds" transform="matrix(1,0,0,1,0,0)"><svg viewBox="0 0 280 280" height="280" width="280"><g><svg viewBox="0 0 280 280" height="280" width="280"><g transform="matrix(1,0,0,1,60.80404050710668,93.52906009068666)"><svg viewBox="0 0 158.39191898578665 92.94187981862669" height="92.94187981862669" width="158.39191898578665"><g><svg viewBox="0 0 158.39191898578665 92.94187981862669" height="92.94187981862669" width="158.39191898578665"><g><svg viewBox="0 0 158.39191898578665 92.94187981862669" height="92.94187981862669" width="158.39191898578665"><g transform="matrix(1,0,0,1,0,55.90332782300147)"><svg viewBox="0 0 158.39191898578665 37.03855199562523" height="37.03855199562523" width="158.39191898578665"><g id="textblocktransform"><svg viewBox="0 0 158.39191898578665 37.03855199562523" height="37.03855199562523" width="158.39191898578665" id="textblock"><g><svg viewBox="0 0 158.39191898578665 19.97682511160558" height="19.97682511160558" width="158.39191898578665"><g transform="matrix(1,0,0,1,0,0)"><svg width="158.39191898578665" viewBox="1.15 -33.7 267.18 33.7" height="19.97682511160558" data-palette-color="#f7f2ec"><path d="M13.45-14.3L13.45-14.3 13.1-13.1 21.2-13.1 20.85-14.3Q19.4-19.2 18.48-22.65 17.55-26.1 17.35-27.1L17.35-27.1 17.15-28.1Q16.75-25.35 13.45-14.3ZM11.25-6.9L9.2 0 1.15 0 12.4-33.7 22.1-33.7 33.35 0 25.1 0 23.05-6.9 11.25-6.9ZM57.9-6.75L57.9 0 37.75 0 37.75-33.7 45.45-33.7 45.45-6.75 57.9-6.75ZM74.5-16.1L74.5-10.1 61.15-10.1 61.15-16.1 74.5-16.1ZM94.54 0L94.54 0 79.99 0 79.99-33.7 93.09-33.7Q98.64-33.7 101.54-31.08 104.44-28.45 104.44-24.4L104.44-24.4Q104.44-21.75 103.04-19.75 101.64-17.75 99.39-17.05L99.39-17.05Q105.24-15.3 105.24-9.15L105.24-9.15Q105.24-5.15 102.37-2.58 99.49 0 94.54 0ZM91.79-27.55L91.79-27.55 87.69-27.55 87.69-20 90.54-20Q93.54-20 95.07-21.1 96.59-22.2 96.59-24L96.59-24Q96.59-27.55 91.79-27.55ZM91.79-13.95L91.79-13.95 87.69-13.95 87.69-6.15 91.74-6.15Q97.44-6.15 97.44-10.05 97.44-13.95 91.79-13.95ZM131.19-6.15L131.19 0 110.24 0 110.24-33.7 130.99-33.7 130.99-27.55 117.99-27.55 117.99-19.9 129.59-19.9 129.59-13.8 117.99-13.8 117.99-6.15 131.19-6.15ZM148.94 0L148.94 0 137.44 0 137.44-33.7 149.04-33.7Q156.64-33.7 161.49-29.03 166.34-24.35 166.34-17.4L166.34-17.4Q166.34-9.3 161.56-4.65 156.79 0 148.94 0ZM148.79-27.35L148.79-27.35 145.34-27.35 145.34-6.3 148.84-6.3Q153.49-6.3 156.01-9.2 158.54-12.1 158.54-17.4L158.54-17.4Q158.54-21.9 155.99-24.63 153.44-27.35 148.79-27.35ZM181.78-14.3L181.78-14.3 181.44-13.1 189.54-13.1 189.19-14.3Q187.74-19.2 186.81-22.65 185.89-26.1 185.69-27.1L185.69-27.1 185.49-28.1Q185.09-25.35 181.78-14.3ZM179.59-6.9L177.53 0 169.49 0 180.74-33.7 190.44-33.7 201.69 0 193.44 0 191.39-6.9 179.59-6.9ZM222.68-12.4L222.68 0 214.98 0 214.98-12.35 203.48-33.7 212.48-33.7 214.53-28.8Q216.13-25 217.18-22.3 218.23-19.6 218.53-18.8L218.53-18.8 218.78-18Q219.28-20.25 223.18-28.8L223.18-28.8 225.38-33.7 234.33-33.7 222.68-12.4ZM248.43-14.3L248.43-14.3 248.08-13.1 256.18-13.1 255.83-14.3Q254.38-19.2 253.46-22.65 252.53-26.1 252.33-27.1L252.33-27.1 252.13-28.1Q251.73-25.35 248.43-14.3ZM246.23-6.9L244.18 0 236.13 0 247.38-33.7 257.08-33.7 268.33 0 260.08 0 258.03-6.9 246.23-6.9Z" opacity="1" transform="matrix(1,0,0,1,0,0)" fill="#000000" class="wordmark-text-0" data-fill-palette-color="primary" id="text-0"></path></svg></g></svg></g><g transform="matrix(1,0,0,1,0,24.69287407665298)"><svg viewBox="0 0 158.39191898578665 12.34567791897225" height="12.34567791897225" width="158.39191898578665"><g transform="matrix(1,0,0,1,0,0)"><svg width="158.39191898578665" viewBox="3.3 -35.8 466.36 36.349999999999994" height="12.34567791897225" data-palette-color="#f7f2ec"><path d="M21.35-1.15Q16.9 0.5 13.05 0.5L13.05 0.5Q8.7 0.5 6-1.8 3.3-4.1 3.3-9.15L3.3-9.15 3.3-25.2Q3.3-29 4.38-30.95 5.45-32.9 7.65-34.25L7.65-34.25Q9.85-35.5 13.05-35.5L13.05-35.5Q16.95-35.5 20.1-33.85L20.1-33.85 18.55-28.85Q16.25-29.7 13.5-29.7L13.5-29.7Q11.4-29.7 10.1-28.55 8.8-27.4 8.8-25.65L8.8-25.65 8.8-9.25Q8.8-5.05 13.5-5.05L13.5-5.05Q15-5.05 16.5-5.38 18-5.7 20.5-6.35L20.5-6.35 21.35-1.15ZM55.24-9.25Q55.24-4.2 52.16-1.83 49.09 0.55 44.79 0.55L44.79 0.55Q42.09 0.55 39.69-0.43 37.29-1.4 35.76-3.6 34.24-5.8 34.24-9.25L34.24-9.25 34.24-25.35Q34.24-30.5 37.06-33.15 39.89-35.8 44.84-35.8L44.84-35.8Q49.79-35.8 52.51-33 55.24-30.2 55.24-25.3L55.24-25.3 55.24-9.25ZM49.74-23.5Q49.74-25.6 49.39-26.95 49.04-28.3 47.94-29.08 46.84-29.85 44.74-29.85L44.74-29.85Q42.64-29.85 41.54-29.1 40.44-28.35 40.09-27.03 39.74-25.7 39.74-23.55L39.74-23.55 39.74-10.2Q39.74-7.8 40.96-6.43 42.19-5.05 44.74-5.05L44.74-5.05Q47.09-5.05 48.41-6.5 49.74-7.95 49.74-10.3L49.74-10.3 49.74-23.5ZM87.38-35.05L92.88-35.05 92.88-9.3Q92.88-4.25 89.8-1.95 86.73 0.35 82.38 0.35L82.38 0.35Q78.03 0.35 74.93-1.95 71.83-4.25 71.83-9.3L71.83-9.3 71.83-35.05 77.33-35.05 77.33-11.5Q77.33-8.1 78.35-6.58 79.38-5.05 82.33-5.05L82.33-5.05Q85.33-5.05 86.35-6.58 87.38-8.1 87.38-11.5L87.38-11.5 87.38-35.05ZM126.07 0L122.72-9.75 115.42-9.75 115.42 0 109.92 0 109.92-35 121.77-35Q125.07-35 127.27-33.38 129.47-31.75 130.54-29.05 131.62-26.35 131.62-23.1L131.62-23.1Q131.62-20.65 131.42-18.85 131.22-17.05 130.39-15.1 129.57-13.15 127.77-11.6L127.77-11.6 131.67 0 126.07 0ZM120.47-15Q122.92-15 124.09-16.28 125.27-17.55 125.54-19.2 125.82-20.85 125.82-23.1L125.82-23.1Q125.82-25.75 125.07-27.13 124.32-28.5 122.97-28.98 121.62-29.45 119.47-29.45L119.47-29.45 115.42-29.45 115.42-15 120.47-15ZM165.16-1.15Q160.71 0.5 156.86 0.5L156.86 0.5Q152.51 0.5 149.81-1.8 147.11-4.1 147.11-9.15L147.11-9.15 147.11-25.2Q147.11-29 148.18-30.95 149.26-32.9 151.46-34.25L151.46-34.25Q153.66-35.5 156.86-35.5L156.86-35.5Q160.76-35.5 163.91-33.85L163.91-33.85 162.36-28.85Q160.06-29.7 157.31-29.7L157.31-29.7Q155.21-29.7 153.91-28.55 152.61-27.4 152.61-25.65L152.61-25.65 152.61-9.25Q152.61-5.05 157.31-5.05L157.31-5.05Q158.81-5.05 160.31-5.38 161.81-5.7 164.31-6.35L164.31-6.35 165.16-1.15ZM178.8 0L178.8-35 195.5-35 195.5-29.5 184.3-29.5 184.3-20.65 191.15-20.65 189.6-15.4 184.3-15.4 184.3-5 195.4-5 195.4 0 178.8 0ZM215.49-9.75Q215.74-7.55 217.29-6.2 218.84-4.85 221.34-4.85L221.34-4.85Q223.44-4.85 224.76-5.55 226.09-6.25 226.69-7.25 227.29-8.25 227.29-9.2L227.29-9.2Q227.29-11.4 226.21-12.88 225.14-14.35 223.56-15.23 221.99-16.1 219.29-17.25L219.29-17.25Q216.34-18.5 214.61-19.53 212.89-20.55 211.66-22.33 210.44-24.1 210.44-26.85L210.44-26.85Q210.44-29.05 211.69-31.03 212.94-33 215.49-34.25 218.04-35.5 221.74-35.5L221.74-35.5Q224.19-35.5 225.79-35.15 227.39-34.8 229.04-34L229.04-34 227.29-28.8Q225.49-29.4 224.36-29.65 223.24-29.9 221.79-29.9L221.79-29.9Q218.94-29.9 217.59-28.9 216.24-27.9 216.39-26.35L216.39-26.35Q216.54-25.1 217.91-24.2 219.29-23.3 222.19-22L222.19-22Q225.59-20.5 227.84-19.15 230.09-17.8 231.71-15.45 233.34-13.1 233.34-9.7L233.34-9.7Q233.34-5.25 230.39-2.35 227.44 0.55 221.39 0.55L221.39 0.55Q217.69 0.55 215.06-0.83 212.44-2.2 211.06-4.38 209.69-6.55 209.59-8.9L209.59-8.9 215.49-9.75ZM247.63-15.4L247.63-20.65 263.63-20.65 263.63-15.4 247.63-15.4ZM296.81-1.15Q292.36 0.5 288.51 0.5L288.51 0.5Q284.16 0.5 281.46-1.8 278.76-4.1 278.76-9.15L278.76-9.15 278.76-25.2Q278.76-29 279.84-30.95 280.91-32.9 283.11-34.25L283.11-34.25Q285.31-35.5 288.51-35.5L288.51-35.5Q292.41-35.5 295.56-33.85L295.56-33.85 294.01-28.85Q291.71-29.7 288.96-29.7L288.96-29.7Q286.86-29.7 285.56-28.55 284.26-27.4 284.26-25.65L284.26-25.65 284.26-9.25Q284.26-5.05 288.96-5.05L288.96-5.05Q290.46-5.05 291.96-5.38 293.46-5.7 295.96-6.35L295.96-6.35 296.81-1.15ZM310.45 0L310.45-35 327.15-35 327.15-29.5 315.95-29.5 315.95-20.65 322.8-20.65 321.25-15.4 315.95-15.4 315.95-5 327.05-5 327.05 0 310.45 0ZM362.34 0L348.79-23.65 348.79 0 343.29 0 343.29-35 348.79-35 362.34-11.5 362.34-35 367.89-35 367.89 0 362.34 0ZM388.68 0L388.68-29.45 381.48-29.45 381.48-35 401.58-35 401.58-29.45 394.18-29.45 394.18 0 388.68 0ZM415.07 0L415.07-35 431.77-35 431.77-29.5 420.57-29.5 420.57-20.65 427.42-20.65 425.87-15.4 420.57-15.4 420.57-5 431.67-5 431.67 0 415.07 0ZM464.06 0L460.71-9.75 453.41-9.75 453.41 0 447.91 0 447.91-35 459.76-35Q463.06-35 465.26-33.38 467.46-31.75 468.54-29.05 469.61-26.35 469.61-23.1L469.61-23.1Q469.61-20.65 469.41-18.85 469.21-17.05 468.39-15.1 467.56-13.15 465.76-11.6L465.76-11.6 469.66 0 464.06 0ZM458.46-15Q460.91-15 462.09-16.28 463.26-17.55 463.54-19.2 463.81-20.85 463.81-23.1L463.81-23.1Q463.81-25.75 463.06-27.13 462.31-28.5 460.96-28.98 459.61-29.45 457.46-29.45L457.46-29.45 453.41-29.45 453.41-15 458.46-15Z" opacity="1" transform="matrix(1,0,0,1,0,0)" fill="#000000" class="slogan-text-1" data-fill-palette-color="secondary" id="text-1"></path></svg></g></svg></g></svg></g></svg></g><g transform="matrix(1,0,0,1,53.60232006391628,0)"><svg viewBox="0 0 51.18727885795408 51.18727885795407" height="51.18727885795407" width="51.18727885795408"><g><svg xmlns="http://www.w3.org/2000/svg" xmlns:xlink="http://www.w3.org/1999/xlink" version="1.1" x="0" y="0" viewBox="5.1999999999999975 5.1999999999999975 89.60000000000001 89.6" enable-background="new 0 0 100 100" xml:space="preserve" height="51.18727885795407" width="51.18727885795408" class="icon-icon-0" data-fill-palette-color="accent" id="icon-0"><g fill="#c6c1ea" data-fill-palette-color="accent"><circle cx="50" cy="50" r="8.3" fill="#000000" data-fill-palette-color="accent"></circle><path d="M47.7 34.9L47.7 34.9c2.5 2.5 1.6 2.5 4.1 0h0l6.3-7c0.6-0.8-0.2-0.8-0.5-0.8h-4.9v-19h0c0 0 0 0 0 0 0-1.6-1.3-2.9-2.9-2.9-1.6 0-2.9 1.3-2.9 2.9 0 0 0 0 0 0v19H42c-0.3 0-1.2 0-0.5 0.8L47.7 34.9z" fill="#000000" data-fill-palette-color="accent"></path><path d="M91.9 47.8C91.9 47.8 91.9 47.8 91.9 47.8l-19 0v-4.9c0-0.3 0-1.2-0.8-0.5l-7 6.3v0c-2.5 2.5-2.5 1.6 0 4.1v0l7 6.3c0.8 0.6 0.8-0.2 0.8-0.5v-4.9h19c0 0 0 0 0 0 1.6 0 2.9-1.3 2.9-2.9C94.8 49.1 93.5 47.8 91.9 47.8z" fill="#000000" data-fill-palette-color="accent"></path><path d="M51.8 65.1L51.8 65.1c-2.5-2.5-1.6-2.5-4.1 0h0l-6.3 7c-0.6 0.8 0.2 0.8 0.5 0.8h4.9v19h0c0 0 0 0 0 0 0 1.6 1.3 2.9 2.9 2.9 1.6 0 2.9-1.3 2.9-2.9 0 0 0 0 0 0v-19h4.9c0.3 0 1.2 0 0.5-0.8L51.8 65.1z" fill="#000000" data-fill-palette-color="accent"></path><path d="M34.9 48.7L34.9 48.7l-7-6.3c-0.8-0.6-0.8 0.2-0.8 0.5v4.9h-19c0 0 0 0 0 0-1.6 0-2.9 1.3-2.9 2.9 0 1.6 1.3 2.9 2.9 2.9 0 0 0 0 0 0h19v4.9c0 0.3 0 1.2 0.8 0.5l7-6.3v0C37.4 50.2 37.4 51.1 34.9 48.7z" fill="#000000" data-fill-palette-color="accent"></path></g></svg></g></svg></g><g></g></svg></g></svg></g></svg></g><g id="text-0"><path d="M21.557 99.989v0l0.823 0.631 2.375-6.253-1.032-0.083c-2.803-0.214-5.184-0.42-7.143-0.619-1.959-0.198-3.214-0.345-3.766-0.441v0l-0.831-0.135c1.341 0.743 4.532 3.043 9.574 6.9zM26.625 103.859l4.721 3.611-2.357 6.206-22.721-18.558 2.844-7.488 29.315 1.192-2.42 6.374-5.924-0.443z" fill="#000000" data-fill-palette-color="accent"></path><path d="M51.647 60.597l4.415 3.405-10.159 13.176-22.038-16.993 3.884-5.038 17.623 13.589z" fill="#000000" data-fill-palette-color="accent"></path><path d="M66.435 37.703l3.075 3.891-8.647 6.834-3.075-3.891z" fill="#000000" data-fill-palette-color="accent"></path><path d="M98.825 35.894v0l-11.041 4.742-10.984-25.569 9.935-4.268c2.813-1.208 5.238-1.464 7.275-0.767 2.031 0.699 3.488 2.075 4.369 4.127v0c0.575 1.339 0.727 2.666 0.455 3.98-0.272 1.314-0.901 2.392-1.888 3.234v0c3.341-0.382 5.679 0.982 7.015 4.093v0c0.868 2.021 0.855 3.996-0.04 5.923-0.895 1.928-2.594 3.429-5.096 4.505zM87.754 15.889v0l-3.105 1.334 2.46 5.726 2.164-0.93c1.516-0.651 2.541-1.42 3.077-2.306 0.526-0.89 0.595-1.788 0.205-2.695v0c-0.772-1.796-2.372-2.172-4.801-1.129zM92.187 26.208v0l-3.105 1.334 2.542 5.917 3.068-1.318c2.886-1.24 3.905-2.846 3.058-4.818-0.847-1.972-2.702-2.344-5.563-1.115z" fill="#000000" data-fill-palette-color="accent"></path><path d="M137.679 22.584l0.577 5.046-17.192 1.964-3.159-27.649 17.023-1.945 0.577 5.046-10.665 1.219 0.718 6.28 9.519-1.088 0.571 4.997-9.519 1.087 0.718 6.281z" fill="#000000" data-fill-palette-color="accent"></path><path d="M162.735 30.73v0l-9.316-1.869 5.472-27.285 9.394 1.884c4.099 0.822 7.205 2.756 9.318 5.802 2.111 3.052 2.791 6.453 2.039 10.201v0c-0.877 4.372-2.857 7.557-5.94 9.553-3.076 1.992-6.731 2.563-10.967 1.714zM167.049 8.564v0l-2.797-0.561-3.418 17.044 2.835 0.569c2.514 0.504 4.607 0.11 6.279-1.184 1.678-1.292 2.805-3.371 3.379-6.236v0c0.487-2.43 0.19-4.517-0.893-6.261-1.083-1.744-2.878-2.868-5.385-3.371z" fill="#000000" data-fill-palette-color="accent"></path><path d="M202.917 33.606v0l-0.767 0.699 5.736 3.442 0.264-1.001c0.706-2.721 1.329-5.029 1.87-6.922 0.541-1.893 0.907-3.103 1.099-3.628v0l0.28-0.795c-0.968 1.189-3.795 3.924-8.482 8.205zM198.213 37.912l-4.388 4.009-5.693-3.416 22.279-19.087 6.869 4.122-6.351 28.644-5.846-3.508 1.481-5.753z" fill="#000000" data-fill-palette-color="accent"></path><path d="M237.412 65.259l-7.825 6.6-4.101-4.862 7.795-6.575 7.357-18.623 4.793 5.683-2.002 3.899c-1.032 2.024-1.93 3.734-2.693 5.132-0.764 1.407-1.261 2.312-1.493 2.716v0l-0.367 0.582c1.121-0.582 4.175-1.571 9.16-2.967v0l4.265-1.218 4.761 5.644z" fill="#000000" data-fill-palette-color="accent"></path><path d="M256.185 94.185v0l-1.034 0.09 2.469 6.216 0.818-0.635c2.213-1.734 4.109-3.19 5.687-4.366 1.579-1.176 2.604-1.915 3.077-2.216v0l0.704-0.462c-1.491 0.357-5.398 0.815-11.721 1.373zM249.833 94.751l-5.92 0.523-2.451-6.17 29.29-1.646 2.957 7.444-22.432 18.91-2.517-6.336 4.669-3.673z" fill="#000000" data-fill-palette-color="accent"></path><path d="M24.063 185.891v0l-1.035 0.074 2.375 6.253 0.827-0.622c2.239-1.701 4.157-3.127 5.753-4.279 1.597-1.152 2.633-1.875 3.109-2.17v0l0.712-0.451c-1.496 0.334-5.41 0.732-11.741 1.195zM17.703 186.361l-5.927 0.433-2.357-6.207 29.311-1.201 2.844 7.488-22.717 18.567-2.42-6.373 4.724-3.602z" fill="#000000" data-fill-palette-color="accent"></path><path d="M43.9 232.207l-4.415 3.405-10.16-13.176 22.038-16.993 3.884 5.038-17.622 13.588z" fill="#000000" data-fill-palette-color="accent"></path><path d="M69.947 244.686l-3.076 3.891-8.647-6.835 3.075-3.891z" fill="#000000" data-fill-palette-color="accent"></path><path d="M90.562 270.172v0l-11.04-4.743 10.984-25.569 9.935 4.268c2.813 1.208 4.667 2.791 5.565 4.748 0.891 1.955 0.896 3.958 0.014 6.01v0c-0.575 1.339-1.433 2.363-2.573 3.07-1.14 0.707-2.356 0.993-3.646 0.857v0c2.577 2.16 3.197 4.795 1.861 7.906v0c-0.868 2.021-2.31 3.371-4.325 4.048-2.015 0.678-4.273 0.479-6.775-0.595zM97.45 248.371v0l-3.104-1.334-2.46 5.725 2.164 0.93c1.516 0.651 2.779 0.866 3.791 0.644 1.008-0.231 1.706-0.799 2.096-1.706v0c0.772-1.796-0.057-3.216-2.487-4.259zM93.018 258.69v0l-3.105-1.334-2.542 5.917 3.068 1.318c2.886 1.24 4.752 0.873 5.6-1.099 0.847-1.972-0.16-3.573-3.021-4.802z" fill="#000000" data-fill-palette-color="accent"></path><path d="M136.456 274.954l-0.577 5.046-17.192-1.965 3.16-27.648 17.024 1.945-0.577 5.046-10.664-1.219-0.718 6.28 9.519 1.088-0.571 4.997-9.519-1.088-0.718 6.28z" fill="#000000" data-fill-palette-color="accent"></path><path d="M166.851 276.627v0l-9.316 1.868-5.472-27.285 9.394-1.884c4.099-0.822 7.711-0.235 10.834 1.76 3.125 2.002 5.063 4.877 5.815 8.625v0c0.877 4.372 0.278 8.074-1.797 11.106-2.07 3.024-5.222 4.96-9.458 5.81zM162.284 254.512v0l-2.797 0.561 3.419 17.043 2.835-0.568c2.514-0.504 4.293-1.675 5.337-3.514 1.05-1.839 1.288-4.191 0.714-7.056v0c-0.487-2.43-1.567-4.241-3.239-5.433-1.672-1.192-3.761-1.537-6.269-1.033z" fill="#000000" data-fill-palette-color="accent"></path><path d="M201.538 250.926v0l0.255 1.006 5.736-3.442-0.759-0.704c-2.069-1.903-3.812-3.539-5.228-4.907-1.416-1.368-2.311-2.261-2.684-2.678v0l-0.569-0.62c0.593 1.414 1.676 5.195 3.249 11.345zM203.123 257.103l1.473 5.758-5.693 3.416-6.359-28.639 6.869-4.122 22.287 19.081-5.846 3.508-4.379-4.014z" fill="#000000" data-fill-palette-color="accent"></path><path d="M237.763 221.869l7.825 6.6-4.101 4.862-7.794-6.574-19.597-4.113 4.793-5.683 4.181 1.317c2.169 0.676 4.006 1.273 5.513 1.789 1.516 0.516 2.492 0.854 2.928 1.014v0l0.636 0.263c-0.763-1.007-2.252-3.85-4.469-8.529v0l-1.919-3.998 4.761-5.645z" fill="#000000" data-fill-palette-color="accent"></path><path d="M253.693 191.657v0l0.814 0.644 2.469-6.217-1.03-0.099c-2.8-0.257-5.177-0.499-7.133-0.727-1.956-0.228-3.209-0.394-3.759-0.498v0l-0.829-0.148c1.329 0.763 4.485 3.111 9.468 7.045zM258.702 195.603l4.665 3.682-2.451 6.17-22.435-18.9 2.957-7.445 29.293 1.637-2.517 6.337-5.916-0.533z" fill="#000000" data-fill-palette-color="accent"></path><path d="M4.138 143.416c0-5.871 4.759-10.631 10.63-10.631 5.871 0 10.631 4.759 10.631 10.631 0 5.871-4.759 10.631-10.631 10.63-5.871 0-10.631-4.759-10.63-10.63z" fill="#000000" data-fill-palette-color="accent"></path><path d="M254.601 143.416c0-5.871 4.759-10.631 10.631-10.631 5.871 0 10.631 4.759 10.63 10.631 0 5.871-4.759 10.631-10.63 10.63-5.871 0-10.631-4.759-10.631-10.63z" fill="#000000" data-fill-palette-color="accent"></path></g><g id="text-1"></g></svg></g><defs></defs></svg><rect width="280" height="280" fill="none" stroke="none" visibility="hidden"></rect></g></svg></g></svg>