<svg xmlns="http://www.w3.org/2000/svg" version="1.1" xmlns:xlink="http://www.w3.org/1999/xlink" xmlns:svgjs="http://svgjs.dev/svgjs" width="1500" height="1268" viewBox="0 0 1500 1268"><g transform="matrix(1,0,0,1,-1.2527456597622404,0.513360323886559)"><svg viewBox="0 0 292 247" data-background-color="#fce44d" preserveAspectRatio="xMidYMid meet" height="1268" width="1500" xmlns="http://www.w3.org/2000/svg" xmlns:xlink="http://www.w3.org/1999/xlink"><g id="tight-bounds" transform="matrix(1,0,0,1,0.24386782176705424,-0.09999999999999432)"><svg viewBox="0 0 291.5122643564659 247.2" height="247.2" width="291.5122643564659"><g><svg viewBox="0 0 395.52 335.3977034751518" height="247.2" width="291.5122643564659"><g transform="matrix(1,0,0,1,0,246.24245346046533)"><svg viewBox="0 0 395.52 89.15525001468647" height="89.15525001468647" width="395.52"><g id="textblocktransform"><svg viewBox="0 0 395.52 89.15525001468647" height="89.15525001468647" width="395.52" id="textblock"><g><rect width="75.54432" height="5.209388671668453" y="77.67445331388271" fill="#000000" data-fill-palette-color="tertiary"></rect><rect width="75.54432" height="5.209388671668453" y="77.67445331388271" x="319.97568" fill="#000000" data-fill-palette-color="tertiary"></rect></g><g><svg viewBox="0 0 395.52 57.76590216519648" height="57.76590216519648" width="395.52"><g transform="matrix(1,0,0,1,0,0)"><svg width="395.52" viewBox="-2 -36.43 249.38 36.43" height="57.76590216519648" data-palette-color="#374151"><path d="M23.75-36.43L32.2 0 25.9 0Q24.85 0 24.21-0.49 23.58-0.98 23.45-1.78L23.45-1.78 22.33-8.33 9.95-8.33 7.25-1.78Q6.98-1.07 6.18-0.54 5.38 0 4.4 0L4.4 0-2 0 15.4-36.43 23.75-36.43ZM16.5-24.23L12.23-13.88 21.38-13.88 19.6-24.28Q19.38-25.58 19.11-26.91 18.85-28.25 18.68-29.35L18.68-29.35Q18.48-28.75 18.15-27.99 17.82-27.23 17.51-26.5 17.2-25.78 16.91-25.15 16.63-24.53 16.5-24.23L16.5-24.23ZM46.9-36.43L43.2-6.5 55.45-6.5 54.65 0 34.25 0 38.75-36.43 46.9-36.43ZM55.34-12.15L56.09-18.2 68.65-18.2 67.84-12.15 55.34-12.15ZM84.89 0L71.29 0 75.79-36.43 88.29-36.43Q91.47-36.43 93.73-35.83 95.99-35.23 97.43-34.11 98.87-33 99.53-31.44 100.19-29.88 100.19-27.98L100.19-27.98Q100.19-26.48 99.81-25.09 99.42-23.7 98.58-22.53 97.74-21.35 96.42-20.39 95.09-19.43 93.22-18.78L93.22-18.78Q96.17-17.98 97.58-16.29 98.99-14.6 98.99-12.03L98.99-12.03Q98.99-9.5 98.03-7.31 97.07-5.13 95.24-3.5 93.42-1.88 90.81-0.94 88.19 0 84.89 0L84.89 0ZM86.59-15.55L81.34-15.55 80.19-6.13 85.54-6.13Q87.04-6.13 88.07-6.56 89.09-7 89.73-7.79 90.37-8.58 90.66-9.63 90.94-10.68 90.94-11.93L90.94-11.93Q90.94-12.75 90.73-13.43 90.52-14.1 90.01-14.56 89.49-15.03 88.66-15.29 87.82-15.55 86.59-15.55L86.59-15.55ZM83.14-30.35L81.99-20.95 85.89-20.95Q87.27-20.95 88.37-21.23 89.47-21.5 90.26-22.16 91.04-22.83 91.47-23.93 91.89-25.03 91.89-26.65L91.89-26.65Q91.89-28.68 90.83-29.51 89.77-30.35 87.54-30.35L87.54-30.35 83.14-30.35ZM127.69-36.43L126.89-30.15 113.42-30.15 112.32-21.35 122.64-21.35 121.84-15.3 111.57-15.3 110.47-6.28 124.04-6.28 123.24 0 101.49 0 105.99-36.43 127.69-36.43ZM160.44-20.55L160.44-20.55Q160.44-17.57 159.76-14.91 159.09-12.25 157.84-9.96 156.59-7.68 154.8-5.84 153.01-4 150.8-2.7 148.59-1.4 145.98-0.7 143.36 0 140.49 0L140.49 0 127.39 0 131.89-36.43 144.99-36.43Q148.56-36.43 151.43-35.21 154.29-34 156.29-31.88 158.29-29.75 159.36-26.85 160.44-23.95 160.44-20.55ZM152.09-20.35L152.09-20.35Q152.09-22.58 151.58-24.39 151.06-26.2 150.05-27.48 149.04-28.75 147.56-29.45 146.09-30.15 144.19-30.15L144.19-30.15 139.29-30.15 136.39-6.28 141.29-6.28Q143.79-6.28 145.79-7.26 147.79-8.25 149.19-10.08 150.59-11.9 151.34-14.5 152.09-17.1 152.09-20.35ZM182.89-36.43L191.34 0 185.04 0Q183.99 0 183.35-0.49 182.71-0.98 182.59-1.78L182.59-1.78 181.46-8.33 169.09-8.33 166.39-1.78Q166.11-1.07 165.31-0.54 164.51 0 163.54 0L163.54 0 157.14 0 174.54-36.43 182.89-36.43ZM175.64-24.23L171.36-13.88 180.51-13.88 178.74-24.28Q178.51-25.58 178.25-26.91 177.99-28.25 177.81-29.35L177.81-29.35Q177.61-28.75 177.29-27.99 176.96-27.23 176.65-26.5 176.34-25.78 176.05-25.15 175.76-24.53 175.64-24.23L175.64-24.23ZM222.68-36.43L207.76-13.95 206.03 0 197.88 0 199.61-13.88 190.23-36.43 197.48-36.43Q198.53-36.43 199.12-35.94 199.71-35.45 199.98-34.65L199.98-34.65 203.48-23.63Q203.83-22.53 204.12-21.5 204.41-20.48 204.61-19.53L204.61-19.53Q205.08-20.48 205.66-21.49 206.23-22.5 206.88-23.63L206.88-23.63 213.08-34.65Q213.46-35.33 214.18-35.88 214.91-36.43 215.93-36.43L215.93-36.43 222.68-36.43ZM238.93-36.43L247.38 0 241.08 0Q240.03 0 239.39-0.49 238.76-0.98 238.63-1.78L238.63-1.78 237.51-8.33 225.13-8.33 222.43-1.78Q222.16-1.07 221.36-0.54 220.56 0 219.58 0L219.58 0 213.18 0 230.58-36.43 238.93-36.43ZM231.68-24.23L227.41-13.88 236.56-13.88 234.78-24.28Q234.56-25.58 234.29-26.91 234.03-28.25 233.86-29.35L233.86-29.35Q233.66-28.75 233.33-27.99 233.01-27.23 232.69-26.5 232.38-25.78 232.09-25.15 231.81-24.53 231.68-24.23L231.68-24.23Z" opacity="1" transform="matrix(1,0,0,1,0,0)" fill="#374151" class="wordmark-text-0" data-fill-palette-color="primary" id="text-0"></path></svg></g></svg></g><g transform="matrix(1,0,0,1,75.54432,71.4030452847474)"><svg viewBox="0 0 244.43135999999998 17.752204729939066" height="17.752204729939066" width="244.43135999999998"><g transform="matrix(1,0,0,1,8,0)"><svg width="228.43135999999998" viewBox="3.05 -36.25 472.77 36.74" height="17.752204729939066" data-palette-color="#374151"><path d="M31.32-7.08L31.32-3.39Q30.05-2.42 28.5-1.7 26.95-0.98 25.27-0.49 23.58 0 21.86 0.24 20.14 0.49 18.55 0.49L18.55 0.49Q15.11 0.49 12.27-0.62 9.42-1.73 7.37-3.8 5.32-5.86 4.19-8.78 3.05-11.69 3.05-15.33L3.05-15.33Q3.05-18.65 3.97-21.48 4.88-24.32 6.48-26.65 8.08-28.98 10.27-30.77 12.45-32.57 14.98-33.78 17.5-34.99 20.28-35.62 23.05-36.25 25.83-36.25L25.83-36.25Q26.68-36.25 27.78-36.19 28.88-36.13 30.1-35.99 31.32-35.84 32.6-35.6 33.89-35.35 35.08-35.01L35.08-35.01 33.15-29.25 32.64-29.05Q30.52-30.13 28.53-30.53 26.54-30.93 25-30.93L25-30.93Q22.22-30.93 19.86-29.87 17.5-28.81 15.78-26.92 14.06-25.02 13.1-22.44 12.13-19.85 12.13-16.8L12.13-16.8Q12.13-14.18 12.87-12.04 13.6-9.89 15.03-8.37 16.46-6.86 18.55-6.03 20.65-5.2 23.41-5.2L23.41-5.2Q25.59-5.2 27.54-5.71 29.49-6.23 31.32-7.08L31.32-7.08ZM55.12-4.83L55.12-4.83Q56.76-4.83 58.23-5.4 59.69-5.96 60.91-6.97 62.13-7.98 63.1-9.36 64.06-10.74 64.74-12.38 65.43-14.01 65.78-15.83 66.14-17.65 66.14-19.53L66.14-19.53Q66.14-21.9 65.56-23.97 64.99-26.05 63.88-27.6 62.77-29.15 61.14-30.04 59.52-30.93 57.44-30.93L57.44-30.93Q54.95-30.93 52.93-29.69 50.9-28.44 49.46-26.38 48.02-24.32 47.24-21.66 46.46-18.99 46.46-16.19L46.46-16.19Q46.46-13.82 47.03-11.76 47.6-9.69 48.72-8.15 49.83-6.62 51.44-5.73 53.05-4.83 55.12-4.83ZM53.76 0.49L53.76 0.49Q50.12 0.49 47.12-0.59 44.11-1.66 41.97-3.7 39.82-5.74 38.62-8.7 37.42-11.67 37.42-15.45L37.42-15.45Q37.42-18.51 38.19-21.23 38.96-23.95 40.37-26.26 41.77-28.56 43.74-30.42 45.7-32.28 48.08-33.57 50.46-34.86 53.18-35.56 55.91-36.25 58.84-36.25L58.84-36.25Q62.42-36.25 65.43-35.19 68.43-34.13 70.59-32.1 72.75-30.08 73.95-27.1 75.14-24.12 75.14-20.31L75.14-20.31Q75.14-17.26 74.37-14.54 73.61-11.82 72.21-9.5 70.82-7.18 68.86-5.33 66.89-3.49 64.52-2.2 62.16-0.9 59.42-0.21 56.69 0.49 53.76 0.49ZM83.88-35.77L92.52-35.77 89.94-13.01Q89.69-10.96 90.06-9.42 90.42-7.89 91.25-6.87 92.08-5.86 93.29-5.35 94.5-4.83 95.94-4.83L95.94-4.83Q97.41-4.83 98.71-5.35 100.02-5.86 101.07-6.87 102.12-7.89 102.83-9.39 103.54-10.89 103.75-12.89L103.75-12.89 106.37-35.77 113.2-35.77 110.71-13.79Q110.37-10.82 109.13-8.2 107.88-5.59 105.77-3.66 103.66-1.73 100.73-0.62 97.8 0.49 94.06 0.49L94.06 0.49Q90.77 0.49 88.22-0.43 85.66-1.34 84-3.1 82.34-4.86 81.65-7.43 80.95-10.01 81.32-13.35L81.32-13.35 83.88-35.77ZM132.44-13.23L127.9-13.23 126.41 0 117.77 0 121.84-35.77 134.68-35.77Q137.96-35.77 140.37-35.03 142.79-34.3 144.38-33.08 145.96-31.86 146.73-30.26 147.5-28.66 147.5-26.93L147.5-26.93Q147.5-25.1 146.73-23.54 145.96-21.97 144.78-20.67 143.6-19.36 142.16-18.3 140.72-17.24 139.37-16.41L139.37-16.41 147.55 0 137.52 0 132.44-13.23ZM129.88-30.44L128.46-18.19 134.64-18.19Q135.42-18.6 136.19-19.27 136.96-19.95 137.55-20.84 138.15-21.73 138.52-22.81 138.88-23.9 138.88-25.15L138.88-25.15Q138.88-26.29 138.54-27.27 138.2-28.25 137.5-28.96 136.81-29.66 135.77-30.05 134.73-30.44 133.34-30.44L133.34-30.44 129.88-30.44ZM181.48-7.08L181.48-3.39Q180.21-2.42 178.66-1.7 177.11-0.98 175.43-0.49 173.74 0 172.02 0.24 170.3 0.49 168.72 0.49L168.72 0.49Q165.27 0.49 162.43-0.62 159.58-1.73 157.53-3.8 155.48-5.86 154.35-8.78 153.21-11.69 153.21-15.33L153.21-15.33Q153.21-18.65 154.13-21.48 155.04-24.32 156.64-26.65 158.24-28.98 160.43-30.77 162.61-32.57 165.14-33.78 167.67-34.99 170.44-35.62 173.21-36.25 175.99-36.25L175.99-36.25Q176.85-36.25 177.94-36.19 179.04-36.13 180.26-35.99 181.48-35.84 182.77-35.6 184.05-35.35 185.24-35.01L185.24-35.01 183.32-29.25 182.8-29.05Q180.68-30.13 178.69-30.53 176.7-30.93 175.16-30.93L175.16-30.93Q172.38-30.93 170.02-29.87 167.67-28.81 165.94-26.92 164.22-25.02 163.26-22.44 162.29-19.85 162.29-16.8L162.29-16.8Q162.29-14.18 163.03-12.04 163.76-9.89 165.19-8.37 166.62-6.86 168.72-6.03 170.82-5.2 173.57-5.2L173.57-5.2Q175.75-5.2 177.7-5.71 179.65-6.23 181.48-7.08L181.48-7.08ZM210.88 0L188.24 0 192.32-35.77 215.69-35.77 214.12-30.44 200.35-30.44 199.26-20.95 211.24-20.95 209.83-15.99 198.69-15.99 197.47-5.32 212.44-5.32 210.88 0ZM228.94-4.83L228.94-4.83Q230.16-4.83 231.32-5.11 232.48-5.4 233.37-5.94 234.26-6.49 234.8-7.34 235.34-8.18 235.34-9.28L235.34-9.28Q235.34-10.45 234.73-11.34 234.12-12.23 233.1-12.98 232.09-13.72 230.81-14.38 229.53-15.04 228.18-15.76 226.84-16.48 225.56-17.32 224.28-18.16 223.26-19.26 222.25-20.36 221.64-21.8 221.03-23.24 221.03-25.15L221.03-25.15Q221.03-27.59 222.1-29.64 223.18-31.69 225.11-33.15 227.04-34.62 229.73-35.44 232.43-36.25 235.7-36.25L235.7-36.25Q236.53-36.25 237.66-36.19 238.78-36.13 240.02-35.99 241.27-35.84 242.6-35.6 243.93-35.35 245.18-34.99L245.18-34.99 243.25-29.25 242.81-29.05Q241.71-29.57 240.61-29.92 239.51-30.27 238.47-30.51 237.44-30.74 236.52-30.83 235.61-30.93 234.9-30.93L234.9-30.93Q233.63-30.93 232.59-30.65 231.55-30.37 230.82-29.85 230.09-29.32 229.68-28.58 229.28-27.83 229.28-26.9L229.28-26.9Q229.28-25.73 229.9-24.84 230.53-23.95 231.53-23.21 232.53-22.46 233.82-21.8 235.12-21.14 236.46-20.42 237.8-19.7 239.1-18.85 240.39-17.99 241.39-16.89 242.39-15.8 243.01-14.38 243.64-12.96 243.64-11.08L243.64-11.08Q243.64-8.62 242.54-6.51 241.44-4.39 239.43-2.83 237.41-1.27 234.6-0.39 231.8 0.49 228.38 0.49L228.38 0.49Q227.13 0.49 225.75 0.35 224.37 0.22 222.95-0.05 221.52-0.32 220.07-0.76 218.61-1.2 217.27-1.83L217.27-1.83 219.17-7.54 219.71-7.79Q221.03-7.13 222.21-6.58 223.4-6.03 224.52-5.64 225.64-5.25 226.74-5.04 227.84-4.83 228.94-4.83ZM250.13-17.19L266.9-17.19 266.27-11.69 249.52-11.69 250.13-17.19ZM301.37-7.08L301.37-3.39Q300.1-2.42 298.55-1.7 297-0.98 295.32-0.49 293.63 0 291.91 0.24 290.19 0.49 288.6 0.49L288.6 0.49Q285.16 0.49 282.32-0.62 279.47-1.73 277.42-3.8 275.37-5.86 274.24-8.78 273.1-11.69 273.1-15.33L273.1-15.33Q273.1-18.65 274.02-21.48 274.93-24.32 276.53-26.65 278.13-28.98 280.31-30.77 282.5-32.57 285.03-33.78 287.55-34.99 290.32-35.62 293.1-36.25 295.88-36.25L295.88-36.25Q296.73-36.25 297.83-36.19 298.93-36.13 300.15-35.99 301.37-35.84 302.65-35.6 303.94-35.35 305.13-35.01L305.13-35.01 303.2-29.25 302.69-29.05Q300.57-30.13 298.58-30.53 296.59-30.93 295.05-30.93L295.05-30.93Q292.27-30.93 289.91-29.87 287.55-28.81 285.83-26.92 284.11-25.02 283.15-22.44 282.18-19.85 282.18-16.8L282.18-16.8Q282.18-14.18 282.91-12.04 283.65-9.89 285.08-8.37 286.5-6.86 288.6-6.03 290.7-5.2 293.46-5.2L293.46-5.2Q295.63-5.2 297.59-5.71 299.54-6.23 301.37-7.08L301.37-7.08ZM330.76 0L308.13 0 312.21-35.77 335.57-35.77 334.01-30.44 320.24-30.44 319.14-20.95 331.13-20.95 329.71-15.99 318.58-15.99 317.36-5.32 332.33-5.32 330.76 0ZM345.92 0L339.09 0 343.16-35.77 354.86-35.77 364.53-16.24 366.58-10.91 367.06-10.91 367.31-14.53Q367.43-15.63 367.52-16.7 367.6-17.77 367.72-18.87L367.72-18.87 369.65-35.77 376.49-35.77 372.41 0 363.45 0 351.39-24.17 349.49-29.25 349-29.25 348.61-23.63Q347.95-17.68 347.27-11.82 346.58-5.96 345.92 0L345.92 0ZM401.41-30.44L397.92 0 389.3 0 392.77-30.44 381.69-30.44 383.22-35.77 413.25-35.77 411.69-30.44 401.41-30.44ZM437.67 0L415.03 0 419.11-35.77 442.47-35.77 440.91-30.44 427.14-30.44 426.04-20.95 438.03-20.95 436.62-15.99 425.48-15.99 424.26-5.32 439.23-5.32 437.67 0ZM460.71-13.23L456.17-13.23 454.68 0 446.04 0 450.11-35.77 462.96-35.77Q466.23-35.77 468.64-35.03 471.06-34.3 472.65-33.08 474.24-31.86 475-30.26 475.77-28.66 475.77-26.93L475.77-26.93Q475.77-25.1 475-23.54 474.24-21.97 473.05-20.67 471.87-19.36 470.43-18.3 468.99-17.24 467.64-16.41L467.64-16.41 475.82 0 465.79 0 460.71-13.23ZM458.15-30.44L456.73-18.19 462.91-18.19Q463.69-18.6 464.46-19.27 465.23-19.95 465.82-20.84 466.42-21.73 466.79-22.81 467.16-23.9 467.16-25.15L467.16-25.15Q467.16-26.29 466.81-27.27 466.47-28.25 465.78-28.96 465.08-29.66 464.04-30.05 463-30.44 461.61-30.44L461.61-30.44 458.15-30.44Z" opacity="1" transform="matrix(1,0,0,1,0,0)" fill="#374151" class="slogan-text-1" data-fill-palette-color="secondary" id="text-1"></path></svg></g></svg></g></svg></g></svg></g><g transform="matrix(1,0,0,1,88.27591638931825,0)"><svg viewBox="0 0 218.96816722136347 218.96816722136347" height="218.96816722136347" width="218.96816722136347"><g><svg></svg></g><g id="icon-0"><svg viewBox="0 0 218.96816722136347 218.96816722136347" height="218.96816722136347" width="218.96816722136347"><g><path d="M0 109.484c0-60.466 49.018-109.484 109.484-109.484 60.466 0 109.484 49.018 109.484 109.484 0 60.466-49.018 109.484-109.484 109.484-60.466 0-109.484-49.018-109.484-109.484zM109.484 213.759c57.589 0 104.275-46.685 104.275-104.275 0-57.589-46.685-104.275-104.275-104.275-57.589 0-104.275 46.685-104.275 104.275 0 57.589 46.685 104.275 104.275 104.275z" data-fill-palette-color="tertiary" fill="#000000" stroke="transparent"></path></g><g transform="matrix(1,0,0,1,50.307248798557,44.39269332267939)"><svg viewBox="0 0 118.35366962424948 130.1827805760047" height="130.1827805760047" width="118.35366962424948"><g><svg xmlns="http://www.w3.org/2000/svg" xmlns:xlink="http://www.w3.org/1999/xlink" version="1.1" x="0" y="0" viewBox="9.090000000000007 5.0001249973291415 81.822 89.99987500267086" enable-background="new 0 0 100 100" xml:space="preserve" height="130.1827805760047" width="118.35366962424948" class="icon-cg-0" data-fill-palette-color="accent" id="cg-0"><g fill="#000000" data-fill-palette-color="accent"><circle cx="50.162" cy="49.99" r="17" fill="#000000" data-fill-palette-color="accent"></circle><path d="M12.813 33.328l15.86-3.719L22.5 25.782c0.539-0.614 1.093-1.214 1.666-1.788 14.335-14.334 37.656-14.334 51.992 0 3.032 3.033 5.484 6.519 7.289 10.361l7.465-3.504c-2.21-4.709-5.213-8.978-8.923-12.688-17.55-17.551-46.105-17.55-63.653 0-1.021 1.021-1.988 2.113-2.911 3.233l-6.335-3.927L12.813 33.328z" fill="#000000" data-fill-palette-color="accent"></path><path d="M86.911 67.935l-15.987 3.137 6.028 4.048c-0.27 0.287-0.518 0.589-0.794 0.866-6.944 6.943-16.176 10.768-25.998 10.768-9.82 0-19.051-3.824-25.994-10.768-3.014-3.014-5.455-6.474-7.255-10.286l-7.458 3.523c2.208 4.671 5.196 8.909 8.882 12.593C26.836 90.318 38.138 95 50.16 95h0.001c12.023 0 23.326-4.682 31.827-13.184 0.656-0.656 1.287-1.341 1.902-2.036l6.162 4.14L86.911 67.935z" fill="#000000" data-fill-palette-color="accent"></path><polygon points="50.337,23.618 46.98,30.46 53.693,30.46  " fill="#000000" data-fill-palette-color="accent"></polygon><polygon points="69.692,46.809 69.692,53.521 76.533,50.166  " fill="#000000" data-fill-palette-color="accent"></polygon><polygon points="49.986,76.361 53.343,69.52 46.63,69.52  " fill="#000000" data-fill-palette-color="accent"></polygon><polygon points="30.632,53.171 30.632,46.458 23.79,49.814  " fill="#000000" data-fill-palette-color="accent"></polygon><polygon points="63.268,27.104 56.984,31.416 62.832,34.712  " fill="#000000" data-fill-palette-color="accent"></polygon><polygon points="68.736,56.811 65.438,62.658 73.046,63.096  " fill="#000000" data-fill-palette-color="accent"></polygon><polygon points="37.055,72.873 43.34,68.563 37.493,65.265  " fill="#000000" data-fill-palette-color="accent"></polygon><polygon points="34.884,37.319 27.277,36.881 31.586,43.166  " fill="#000000" data-fill-palette-color="accent"></polygon><polygon points="72.897,36.626 65.304,37.25 68.743,43.014  " fill="#000000" data-fill-palette-color="accent"></polygon><polygon points="63.524,72.727 62.901,65.129 57.136,68.569  " fill="#000000" data-fill-palette-color="accent"></polygon><polygon points="31.582,56.963 27.425,63.351 35.022,62.729  " fill="#000000" data-fill-palette-color="accent"></polygon><polygon points="36.801,27.252 37.421,34.846 43.186,31.407  " fill="#000000" data-fill-palette-color="accent"></polygon></g></svg></g></svg></g></svg></g></svg></g><g></g></svg></g><defs></defs></svg><rect width="291.5122643564659" height="247.2" fill="none" stroke="none" visibility="hidden"></rect></g></svg></g></svg>